<mxfile host="drawio-plugin" modified="2022-10-04T18:09:29.109Z" agent="5.0 (Macintosh; Intel Mac OS X 10_15_7) AppleWebKit/537.36 (KHTML, like Gecko) Chrome/98.0.4758.102 Safari/537.36" etag="TJgrs-3Jpp4TJnOCMdHE" version="15.5.4" type="embed"><diagram id="23iRSUPoRavnBvh4doch" name="Overall structure"><mxGraphModel dx="872" dy="760" grid="1" gridSize="10" guides="1" tooltips="1" connect="1" arrows="1" fold="1" page="1" pageScale="1" pageWidth="827" pageHeight="1169" math="0" shadow="0"><root><mxCell id="0"/><mxCell id="1" parent="0"/><mxCell id="14" value="Writes in bulk&lt;br&gt;" style="edgeStyle=orthogonalEdgeStyle;rounded=0;orthogonalLoop=1;jettySize=auto;html=1;entryX=0.5;entryY=0;entryDx=0;entryDy=0;entryPerimeter=0;" edge="1" parent="1" source="24" target="13"><mxGeometry relative="1" as="geometry"><mxPoint x="471" y="490" as="sourcePoint"/></mxGeometry></mxCell><mxCell id="22" value="Sends all simulation timesteps after a simulation has finished" style="edgeStyle=orthogonalEdgeStyle;curved=0;rounded=1;sketch=0;orthogonalLoop=1;jettySize=auto;html=1;entryX=0.5;entryY=0;entryDx=0;entryDy=0;entryPerimeter=0;" edge="1" parent="1" source="13" target="23"><mxGeometry relative="1" as="geometry"><mxPoint x="615.9980369961347" y="642.8600000000001" as="targetPoint"/></mxGeometry></mxCell><mxCell id="13" value="Stores all simulation data" style="strokeWidth=2;html=1;shape=mxgraph.flowchart.database;whiteSpace=wrap;" vertex="1" parent="1"><mxGeometry x="338.8" y="660" width="100" height="107.5" as="geometry"/></mxCell><mxCell id="17" style="edgeStyle=orthogonalEdgeStyle;rounded=0;orthogonalLoop=1;jettySize=auto;html=1;" edge="1" parent="1" source="16" target="24"><mxGeometry relative="1" as="geometry"><mxPoint x="390" y="460.25" as="targetPoint"/></mxGeometry></mxCell><mxCell id="18" value="Writes logs at every timestep" style="edgeLabel;html=1;align=center;verticalAlign=middle;resizable=0;points=[];" vertex="1" connectable="0" parent="17"><mxGeometry x="-0.0036" y="1" relative="1" as="geometry"><mxPoint as="offset"/></mxGeometry></mxCell><mxCell id="16" value="Simulation" style="shape=process;whiteSpace=wrap;html=1;backgroundOutline=1;" vertex="1" parent="1"><mxGeometry x="330" y="330" width="120" height="60" as="geometry"/></mxCell><mxCell id="23" value="Computes entropy" style="outlineConnect=0;dashed=0;verticalLabelPosition=bottom;verticalAlign=top;align=center;html=1;shape=mxgraph.aws3.data_pipeline;fillColor=#F58534;gradientColor=none;rounded=0;sketch=0;" vertex="1" parent="1"><mxGeometry x="355.05" y="840" width="67.5" height="81" as="geometry"/></mxCell><mxCell id="24" value="&lt;meta charset=&quot;utf-8&quot;&gt;&lt;span style=&quot;color: rgb(240, 240, 240); font-family: helvetica; font-size: 12px; font-style: normal; font-weight: 400; letter-spacing: normal; text-align: center; text-indent: 0px; text-transform: none; word-spacing: 0px; background-color: rgb(42, 42, 42); display: inline; float: none;&quot;&gt;In-memory model of the current state of the simulation&lt;/span&gt;" style="dashed=0;outlineConnect=0;html=1;align=center;labelPosition=center;verticalLabelPosition=bottom;verticalAlign=top;shape=mxgraph.webicons.json;gradientColor=#DFDEDE;rounded=0;sketch=0;" vertex="1" parent="1"><mxGeometry x="338.8" y="452.55" width="102.4" height="102.4" as="geometry"/></mxCell><mxCell id="26" value="Executes multiple simulations with specific&amp;nbsp;parameters" style="edgeStyle=orthogonalEdgeStyle;curved=0;rounded=1;sketch=0;orthogonalLoop=1;jettySize=auto;html=1;entryX=0.5;entryY=0;entryDx=0;entryDy=0;" edge="1" parent="1" source="25" target="16"><mxGeometry relative="1" as="geometry"/></mxCell><mxCell id="25" value="" style="outlineConnect=0;dashed=0;verticalLabelPosition=bottom;verticalAlign=top;align=center;html=1;shape=mxgraph.aws3.queue;fillColor=#D9A741;gradientColor=none;rounded=0;sketch=0;rotation=90;" vertex="1" parent="1"><mxGeometry x="352.05" y="200" width="73.5" height="48" as="geometry"/></mxCell></root></mxGraphModel></diagram></mxfile>